<?xml version="1.0" standalone="no"?>
<!DOCTYPE svg PUBLIC "-//W3C//DTD SVG 1.1//EN" "http://www.w3.org/Graphics/SVG/1.1/DTD/svg11.dtd" >
<svg xmlns="http://www.w3.org/2000/svg">
<metadata></metadata>
<defs>
<font id="kabellight" horiz-adv-x="909" >
<font-face units-per-em="2048" ascent="1638" descent="-410" />
<missing-glyph horiz-adv-x="530" />
<glyph horiz-adv-x="2048" />
<glyph horiz-adv-x="2048" />
<glyph unicode="&#xd;" horiz-adv-x="2048" />
<glyph unicode=" "  horiz-adv-x="530" />
<glyph unicode="&#x09;" horiz-adv-x="530" />
<glyph unicode="&#xa0;" horiz-adv-x="530" />
<glyph unicode="!" horiz-adv-x="380" d="M117 61l73 74l74 -74l-74 -73zM156 340v1122l71 25v-1122z" />
<glyph unicode="&#x22;" horiz-adv-x="606" d="M139 967v508h66v-508h-66zM401 967v508h66v-508h-66z" />
<glyph unicode="#" horiz-adv-x="1060" d="M63 426v66h222l47 339h-213v66h223l57 426h66l-57 -426h313l57 426h66l-58 -426h211v-66h-221l-47 -339h213v-66h-221l-59 -426h-66l59 426h-315l-57 -426h-66l57 426h-211zM350 492h314l47 339h-314z" />
<glyph unicode="$" horiz-adv-x="1060" d="M141 172l54 53q26 -31 38 -44.5t47.5 -47t64.5 -50.5t74 -32.5t91 -15.5l10 2v676l-28 8q-310 90 -310 381q0 163 95 275.5t243 129.5v103h55v-99q63 -1 117.5 -15t96.5 -40.5t65 -44.5t51 -45l-55 -53q-83 77 -143.5 102t-131.5 25v-664l50 -16q48 -15 84 -30.5 t79 -45.5t70 -67.5t45.5 -96.5t18.5 -133q0 -96 -38.5 -183.5t-119.5 -153.5t-189 -83v-102h-55v100q-2 -2 -10 -2q-56 0 -109 16t-88.5 36t-73.5 53.5t-55.5 53t-42.5 50.5zM254 1102q0 -225 246 -303l20 -6v643q-129 -18 -197.5 -115t-68.5 -219zM575 41q69 13 124 50 t86.5 87.5t48 104t16.5 104.5q0 130 -71 200t-197 107l-7 2v-655z" />
<glyph unicode="%" horiz-adv-x="1857" d="M172 944q0 184 82 289.5t205 105.5t204.5 -105.5t81.5 -289.5t-82.5 -288.5t-203.5 -104.5q-122 0 -204.5 104.5t-82.5 288.5zM227 944q0 -155 66 -246.5t166 -91.5t165.5 91t65.5 247q0 157 -65.5 248.5t-165.5 91.5t-166 -91.5t-66 -248.5zM408 -16l970 1355h72 l-971 -1355h-71zM1112 377q0 184 82 289.5t205 105.5t205 -105.5t82 -289.5t-82.5 -288.5t-204.5 -104.5t-204.5 104.5t-82.5 288.5zM1167 377q0 -155 66 -246.5t166 -91.5t165.5 91t65.5 247q0 157 -65.5 248.5t-165.5 91.5t-166 -91.5t-66 -248.5z" />
<glyph unicode="&#x26;" horiz-adv-x="985" d="M57 244q0 63 20 113.5t60.5 90.5t80.5 67.5t101 59.5q-76 72 -116.5 137.5t-40.5 149.5q0 109 74.5 188.5t183.5 79.5q110 0 184 -67.5t74 -175.5q0 -59 -21 -108.5t-62 -88.5t-80 -65t-97 -56l235 -241l258 411l54 -34l-263 -426l230 -242l-51 -49l-219 227l-11 -14 q-32 -44 -53 -70.5t-54.5 -61t-64 -53t-73 -32t-89.5 -13.5q-115 0 -187.5 78t-72.5 195zM123 244q0 -90 52.5 -148.5t141.5 -58.5q35 0 66 8t59.5 28t48 35.5t46.5 49t38.5 49.5t38.5 55l-258 275l-32 -21q-49 -31 -77.5 -52t-61 -54.5t-47.5 -74t-15 -91.5zM227 862 q0 -41 11 -76t37.5 -69.5t45.5 -53.5t60 -57q41 25 64.5 40.5t59.5 45.5t56 56t35.5 63t15.5 76q0 81 -55 129.5t-137 48.5q-89 0 -141 -56.5t-52 -146.5z" />
<glyph unicode="'" horiz-adv-x="303" d="M119 967v508h65v-508h-65z" />
<glyph unicode="(" horiz-adv-x="606" d="M57 604q0 154 30.5 279.5t95.5 233.5t150 198t210 190l35 -45q-94 -83 -158.5 -148.5t-124.5 -146t-95.5 -161t-56 -181.5t-20.5 -219t20.5 -219t56 -181.5t95.5 -161t124.5 -146t158.5 -148.5l-35 -45q-125 100 -210 190t-150 198t-95.5 233.5t-30.5 279.5z" />
<glyph unicode=")" horiz-adv-x="606" d="M29 -252q94 83 158.5 148.5t124.5 146t95 161t55.5 181.5t20.5 219t-20.5 219t-55.5 181.5t-95 161t-124.5 146t-158.5 148.5l34 45q125 -100 210 -190t150 -198t95.5 -233.5t30.5 -279.5t-30.5 -279.5t-95.5 -233.5t-150 -198t-210 -190z" />
<glyph unicode="*" horiz-adv-x="681" d="M63 1063l224 121l-219 125l20 61l223 -139v231l56 13v-244l211 123l40 -49l-215 -121l191 -117l-21 -59l-206 129v-236l-56 -12v248l-207 -123z" />
<glyph unicode="+" horiz-adv-x="1228" d="M96 485v66h486v485h65v-485h486v-66h-486v-485h-65v485h-486z" />
<glyph unicode="," horiz-adv-x="303" d="M16 -287l189 508l82 17l-205 -525h-66z" />
<glyph unicode="-" horiz-adv-x="530" d="M96 356v66h338v-66h-338z" />
<glyph unicode="." horiz-adv-x="303" d="M78 61l74 74l73 -74l-73 -73z" />
<glyph unicode="/" horiz-adv-x="681" d="M16 -37l584 1548h66l-584 -1548h-66z" />
<glyph unicode="0" horiz-adv-x="1138" d="M76 662q0 308 140.5 492.5t352.5 184.5q103 0 193.5 -47.5t157 -133t105 -214t38.5 -282.5q0 -151 -42 -280.5t-111.5 -215t-158 -134t-182.5 -48.5t-182.5 48.5t-157.5 134t-111 215t-42 280.5zM147 662q0 -169 57 -309t154 -219t211 -79t211 79t154 219t57 309 q0 76 -13 155t-45 161t-79 145.5t-121 104t-164 40.5t-164 -40.5t-121 -104t-79 -145.5t-45 -161t-13 -155z" />
<glyph unicode="1" horiz-adv-x="493" d="M61 1190l261 162v-1340l-72 -28v1224l-164 -92z" />
<glyph unicode="2" d="M-8 0q302 265 367 324q274 254 361 417q52 96 52 177q0 79 -22 142t-56 101t-78 63t-83.5 34.5t-77.5 9.5q-69 0 -126.5 -23t-94.5 -58.5t-63 -80.5t-37 -88t-11 -82q0 -139 92.5 -222.5t235.5 -101.5l-60 -65q-156 39 -248 137t-92 252q0 168 113 285.5t291 117.5 q162 0 275.5 -116t113.5 -287q0 -45 -11 -91.5t-27 -88t-46.5 -89.5t-56.5 -85t-71.5 -87t-77.5 -83.5t-87 -85.5t-88 -82t-93.5 -84.5t-90.5 -81.5v-6h661l-25 -72h-839z" />
<glyph unicode="3" horiz-adv-x="872" d="M49 164l55 57q36 -39 59 -60.5t62.5 -50t86 -42t102.5 -13.5q54 0 107.5 19t100 55.5t75 98t28.5 137.5q0 49 -19.5 97t-57.5 89.5t-105 67.5t-152 26q-55 0 -104 -6v78q53 1 90 2.5t86.5 7.5t83 17t69.5 31.5t57.5 48.5t35.5 70.5t14 96.5q0 120 -82.5 198.5 t-208.5 78.5q-92 0 -163.5 -35.5t-145.5 -106.5l-43 54q81 79 163 119t189 40q154 0 258.5 -102.5t104.5 -257.5q0 -218 -220 -299q53 -20 93 -49t63 -62t37.5 -62t20 -61.5t7 -48t1.5 -32.5q0 -174 -114 -277.5t-292 -103.5q-181 0 -342 180z" />
<glyph unicode="4" d="M4 362l664 1002v-930h209v-72h-209v-350l-72 -28v378h-592zM129 434h467v715h-4z" />
<glyph unicode="5" horiz-adv-x="833" d="M33 131l55 57q47 -51 116 -92t146 -41q65 0 125 25.5t107.5 71.5t75.5 118t28 158q0 141 -94.5 240.5t-245.5 99.5q-67 0 -117 -18t-110 -54v627h614l-45 -72h-498v-446q68 35 168 35q45 0 95.5 -12.5t105.5 -44t98.5 -76.5t72 -118t28.5 -161q0 -108 -37.5 -195.5 t-96.5 -140t-127 -80.5t-135 -28q-178 0 -329 147z" />
<glyph unicode="6" horiz-adv-x="1060" d="M70 440q0 84 24.5 167.5t62 154t96 144t115 131t132 121t133.5 106.5t133 96l51 -53q-323 -216 -534 -469l4 -4q108 73 248 73q83 0 164.5 -32.5t146.5 -90t105 -145.5t40 -190q0 -105 -39.5 -194.5t-104.5 -147.5t-146 -90.5t-166 -32.5q-88 0 -171 32t-148.5 89 t-105.5 144.5t-40 190.5zM141 440q0 -65 26.5 -132t74.5 -124t125 -93t168 -36q165 0 275 114t110 280q0 112 -55 202t-142.5 137.5t-187.5 47.5q-74 0 -143.5 -25.5t-126 -73.5t-90.5 -125t-34 -172z" />
<glyph unicode="7" horiz-adv-x="872" d="M29 1251v72h815l-500 -1323h-84l485 1251h-716z" />
<glyph unicode="8" d="M70 344q0 253 249 328v4q-235 65 -235 311q0 155 109.5 253.5t261.5 98.5q150 0 259 -98.5t109 -253.5q0 -246 -235 -311v-4q252 -73 252 -328q0 -154 -109 -257t-276 -103t-276 103t-109 257zM141 344q0 -133 93 -211t221 -78t220.5 78t92.5 211t-92.5 211t-220.5 78 t-221 -78t-93 -211zM156 987q0 -127 84.5 -204.5t214.5 -77.5q128 0 212.5 77.5t84.5 204.5q0 126 -84.5 203.5t-212.5 77.5q-129 0 -214 -77.5t-85 -203.5z" />
<glyph unicode="9" horiz-adv-x="1060" d="M70 874q0 105 39.5 194.5t104.5 147.5t146 90.5t166 32.5q88 0 171 -32t148.5 -89t105.5 -144.5t40 -190.5q0 -84 -24.5 -167.5t-62 -154t-96 -144t-115 -131t-132 -121t-133.5 -106.5t-133 -96l-51 53q323 216 534 469l-4 4q-108 -73 -248 -73q-83 0 -164.5 32.5 t-146.5 90t-105 145.5t-40 190zM141 874q0 -112 55 -202t142.5 -137.5t187.5 -47.5q74 0 143.5 25.5t126 73.5t90.5 125t34 172q0 65 -26.5 132t-74.5 124t-125 93t-168 36q-165 0 -275 -114t-110 -280z" />
<glyph unicode=":" horiz-adv-x="303" d="M78 61l74 74l73 -74l-73 -73zM78 664l74 73l73 -73l-73 -74z" />
<glyph unicode=";" horiz-adv-x="303" d="M16 -287l189 508l82 17l-205 -525h-66zM152 664l73 73l74 -73l-74 -74z" />
<glyph unicode="&#x3c;" horiz-adv-x="1228" d="M96 483v72l1037 502v-66l-971 -473l971 -473v-65z" />
<glyph unicode="=" horiz-adv-x="1228" d="M96 287v65h1037v-65h-1037zM96 684v66h1037v-66h-1037z" />
<glyph unicode="&#x3e;" horiz-adv-x="1228" d="M96 -20v65l971 473l-971 473v66l1037 -502v-72z" />
<glyph unicode="?" horiz-adv-x="872" d="M4 1210q13 38 29 72.5t49 78.5t73.5 75t104.5 53t139 22q103 0 192.5 -47t146.5 -140t57 -212q0 -61 -20 -116.5t-58 -101.5t-74.5 -79t-87.5 -70q-42 -30 -58.5 -52t-24 -64t-7.5 -129v-135l-72 -25v199q0 44 2.5 75t12.5 58.5t18 43t33 39.5t42.5 37.5t59.5 45.5 q162 122 162 274q0 135 -100 234.5t-224 99.5q-240 0 -323 -256zM352 61l74 74l74 -74l-74 -73z" />
<glyph unicode="@" horiz-adv-x="1638" d="M45 737q0 158 61 301t165 247t247 165t301 61q177 0 324.5 -50.5t245 -137.5t151 -202t53.5 -244q0 -107 -33 -205.5t-87 -170t-120.5 -125t-135 -80t-130.5 -26.5q-65 0 -105.5 37.5t-41.5 108.5h-4q-106 -146 -266 -146q-117 0 -192 90t-75 218q0 109 36.5 218t98 196 t152 141.5t189.5 54.5q74 0 138 -47.5t83 -130.5h4l43 137h82l-191 -633q-24 -86 -24 -115q0 -63 88 -63q66 0 140 39t138 105.5t106 166.5t42 209q0 121 -49.5 228.5t-139.5 188t-224.5 127t-295.5 46.5q-144 0 -275 -56t-226 -151t-151 -226.5t-56 -275.5t56 -275 t151 -226t226 -151t275 -56q359 0 545 194h94q-128 -143 -280.5 -201.5t-358.5 -58.5q-158 0 -301 61t-247 165t-165 247t-61 301zM469 588q0 -113 60 -182.5t151 -69.5q72 0 143 57t119.5 140t78.5 177t30 169q0 122 -49 182.5t-140 60.5q-83 0 -158.5 -53.5t-125.5 -134 t-79.5 -173t-29.5 -173.5z" />
<glyph unicode="A" horiz-adv-x="1478" d="M16 12l715 1475l731 -1475l-69 -24l-346 706h-629l-332 -706zM455 766h559l-283 592z" />
<glyph unicode="B" horiz-adv-x="948" d="M143 0v1475h250q207 0 332 -91t125 -278q0 -129 -75.5 -228.5t-199.5 -134.5v-4q125 -26 207 -120t82 -240q0 -179 -124.5 -279t-307.5 -100h-289zM215 72h217q160 0 260.5 79t100.5 228q0 83 -32.5 147.5t-88.5 103t-126 58t-151 19.5h-180v-635zM215 778h211 q151 0 251.5 91.5t100.5 236.5q0 78 -28 136.5t-78 93t-112.5 51t-137.5 16.5h-207v-625z" />
<glyph unicode="C" horiz-adv-x="1366" d="M78 737q0 159 61 302.5t164 247t244 164t295 60.5q268 0 489 -165l-53 -58q-192 152 -426 152q-190 0 -352 -94.5t-256 -256.5t-94 -352q0 -114 35.5 -221t100.5 -193.5t151.5 -151.5t193.5 -100.5t221 -35.5q125 0 219 34t213 111l47 -51q-219 -166 -479 -166 q-158 0 -301 60t-247 163t-165 247t-61 304z" />
<glyph unicode="D" horiz-adv-x="1138" d="M143 0v1475h152q153 0 290 -52.5t238.5 -146.5t161 -234t59.5 -305q0 -104 -26.5 -204.5t-89.5 -198t-155 -171t-234.5 -118.5t-317.5 -45h-78zM215 72h41q152 0 284 47t227.5 132t150.5 210.5t55 275.5q0 200 -94 352.5t-256.5 233t-366.5 80.5h-41v-1331z" />
<glyph unicode="E" d="M154 0v1475h663l25 -72h-617v-612h543v-72h-543v-647h666l-37 -72h-700z" />
<glyph unicode="F" horiz-adv-x="757" d="M154 -12v1487h583l17 -72h-529v-637h447v-72h-447v-682z" />
<glyph unicode="G" horiz-adv-x="1554" d="M94 737q0 158 61 301t165 247t247 165t301 61q128 0 252 -43t228 -122l-48 -52q-119 78 -213 112t-219 34q-190 0 -352 -94.5t-256 -256.5t-94 -352q0 -114 35.5 -221t100.5 -193.5t151.5 -151.5t193.5 -100.5t221 -35.5q253 0 455 164v495h-379v72h451v-604 q-92 -77 -240 -138t-287 -61q-158 0 -301 61t-247 165t-165 247t-61 301z" />
<glyph unicode="H" horiz-adv-x="1441" d="M154 -12v1474l71 25v-721h992v696l71 25v-1475l-71 -24v706h-992v-682z" />
<glyph unicode="I" horiz-adv-x="378" d="M154 -12v1474l71 25v-1475z" />
<glyph unicode="J" d="M0 150l49 57q77 -93 139 -132.5t162 -39.5q31 0 64 7t74 23t76 48.5t65 78t47.5 118t17.5 161.5v991l72 25v-1026q0 -98 -22 -177.5t-55 -130t-78.5 -88.5t-85.5 -56.5t-83.5 -30t-65.5 -13.5t-38 -2q-104 0 -182.5 47t-155.5 140z" />
<glyph unicode="K" horiz-adv-x="985" d="M154 -12v1474l71 25v-733l666 721l53 -41l-631 -682l654 -715l-54 -49l-688 762v-738z" />
<glyph unicode="L" horiz-adv-x="948" d="M154 0v1462l71 25v-1415h705l-37 -72h-739z" />
<glyph unicode="M" horiz-adv-x="1818" d="M96 12l215 1475l598 -1340l600 1340l213 -1475l-71 -24l-168 1274h-4l-570 -1274l-573 1274h-4l-164 -1274z" />
<glyph unicode="N" horiz-adv-x="1554" d="M154 -12v1511l1175 -1335v1298l72 25v-1512l-1176 1344v-1307z" />
<glyph unicode="O" horiz-adv-x="1703" d="M78 737q0 158 61 301t165 247t247 165t301 61t301 -61t247 -165t165 -247t61 -301t-61 -301t-165 -247t-247 -165t-301 -61t-301 61t-247 165t-165 247t-61 301zM150 737q0 -114 35.5 -221t100.5 -193.5t151.5 -151.5t193.5 -100.5t221 -35.5t221 35.5t193.5 100.5 t151.5 151.5t100.5 193.5t35.5 221q0 190 -94 352t-256 256.5t-352 94.5t-352 -94.5t-256 -256.5t-94 -352z" />
<glyph unicode="P" d="M164 -12v1487h117q136 0 247 -39t183 -107.5t110.5 -159t38.5 -194.5q0 -105 -35 -195t-102 -158.5t-174.5 -107.5t-243.5 -39h-69v-463zM236 547h90q129 0 232.5 48.5t166.5 147t63 232.5q0 129 -69.5 228.5t-179 149.5t-238.5 50h-65v-856z" />
<glyph unicode="Q" horiz-adv-x="1703" d="M78 737q0 158 61 301t165 247t247 165t301 61t301 -61t247 -165t165 -247t61 -301q0 -171 -69.5 -321.5t-192.5 -257.5l211 -138l-55 -57l-222 143q-197 -143 -446 -143q-158 0 -301 61t-247 165t-165 247t-61 301zM150 737q0 -114 35.5 -221t100.5 -193.5t151.5 -151.5 t193.5 -100.5t221 -35.5t221 35.5t193.5 100.5t151.5 151.5t100.5 193.5t35.5 221q0 190 -94 352t-256 256.5t-352 94.5t-352 -94.5t-256 -256.5t-94 -352z" />
<glyph unicode="R" d="M164 -12v1487h72q80 0 146.5 -6.5t136 -22.5t122 -46.5t95 -75.5t65 -113t22.5 -154q0 -98 -37 -178t-101 -133t-146.5 -84.5t-178.5 -40.5l531 -592l-60 -41l-595 676v-652zM236 676q38 1 59.5 2.5t68 6.5t76.5 12t74.5 21.5t74.5 33.5t63.5 49t53 67t33 88t13.5 111 q0 75 -26.5 134t-70 96t-104 61.5t-123 34.5t-131.5 10h-61v-727z" />
<glyph unicode="S" d="M51 172l53 53q21 -26 30.5 -36.5t37 -39t50 -43.5t55 -34t68.5 -28t75 -9q69 0 127 23t96.5 59.5t65.5 83t39 94t12 92.5q0 130 -71 200t-197 107l-91 27q-309 89 -309 381q0 177 111.5 293t275.5 116q64 0 119.5 -14t98.5 -40.5t66.5 -45t51.5 -45.5l-55 -53 q-84 78 -145 102.5t-136 24.5q-79 0 -141 -30t-99 -79.5t-56 -108t-19 -120.5q0 -225 246 -303l125 -39q48 -15 84 -30.5t78.5 -45.5t69.5 -67.5t45.5 -96.5t18.5 -133q0 -62 -17 -122.5t-51.5 -115t-82.5 -96t-115.5 -66t-144.5 -24.5q-56 0 -109 16t-88.5 36t-73.5 53.5 t-55.5 53t-42.5 50.5z" />
<glyph unicode="T" horiz-adv-x="985" d="M14 1403l13 72h931l13 -72h-443v-1391l-71 -24v1415h-443z" />
<glyph unicode="U" horiz-adv-x="1327" d="M135 459v1003l72 25v-1022q0 -201 124.5 -315.5t323.5 -114.5q32 0 67 4.5t81.5 18.5t89 36t85 61t73 89t50 124.5t19.5 163.5v930l72 25v-1475l-72 -24v245h-6q-55 -112 -183 -191t-276 -79q-71 0 -140.5 15.5t-139.5 53t-122.5 92.5t-85 141.5t-32.5 193.5z" />
<glyph unicode="V" horiz-adv-x="1441" d="M18 1462l72 25l633 -1364l629 1364l71 -25l-706 -1499z" />
<glyph unicode="W" horiz-adv-x="1896" d="M25 1462l71 25l582 -1364l256 614l-311 725l71 25l277 -660l272 660l66 -25l-303 -721l258 -618l536 1364l72 -25l-608 -1499l-295 690l-291 -690z" />
<glyph unicode="X" horiz-adv-x="1212" d="M29 29l532 731l-500 686l60 41l485 -666l486 666l59 -41l-500 -686l533 -731l-60 -41l-518 710l-518 -710z" />
<glyph unicode="Y" horiz-adv-x="1138" d="M25 1462l71 25l482 -928l471 928l65 -25l-754 -1474l-71 24l243 471z" />
<glyph unicode="Z" horiz-adv-x="1175" d="M33 0l917 1403h-893v72h1016l-917 -1403h987l-23 -72h-1087z" />
<glyph unicode="[" horiz-adv-x="569" d="M197 -266v1741h344v-66h-279v-1610h279v-65h-344z" />
<glyph unicode="\" horiz-adv-x="681" d="M16 1511h66l584 -1548h-66z" />
<glyph unicode="]" horiz-adv-x="569" d="M29 -201h278v1610h-278v66h344v-1741h-344v65z" />
<glyph unicode="^" horiz-adv-x="1228" d="M80 395l502 928h65l502 -928h-72l-463 862l-462 -862h-72z" />
<glyph unicode="_" horiz-adv-x="1024" d="M0 -154h1024v-102h-1024v102z" />
<glyph unicode="`" horiz-adv-x="303" d="M-47 1135l72 28l170 -245l-56 -25z" />
<glyph unicode="a" horiz-adv-x="720" d="M57 244q0 109 76 190.5t193 81.5q135 0 202 -102h4v116q0 33 -0.5 47.5t-2.5 38t-6.5 32.5t-13 22t-22 17.5t-33 8.5t-46.5 4q-25 0 -71.5 -4.5t-64.5 -5.5l25 66q82 10 111 10q41 0 73 -7.5t52 -17.5t34.5 -27.5t21.5 -31t10.5 -35.5t4 -32.5t0.5 -30.5v-572l-65 -24v98 h-4q-19 -25 -33.5 -40.5t-41 -35t-62 -29.5t-79.5 -10q-107 0 -184.5 78t-77.5 195zM123 244q0 -86 60.5 -146.5t148.5 -60.5q86 0 146.5 60.5t60.5 146.5t-60.5 146.5t-146.5 60.5q-88 0 -148.5 -60.5t-60.5 -146.5z" />
<glyph unicode="b" horiz-adv-x="983" d="M131 352v1110l72 25v-899h4q55 86 138.5 132t182.5 46q164 0 281 -116.5t117 -280.5t-117 -281t-281 -117q-159 0 -278 114t-119 267zM197 369q0 -137 97.5 -234.5t233.5 -97.5t234 97.5t98 234.5q0 136 -97.5 233.5t-234.5 97.5q-136 0 -233.5 -97t-97.5 -234z" />
<glyph unicode="c" horiz-adv-x="720" d="M57 373q0 167 114 280t284 113q66 0 131 -18.5t106 -42.5l-10 -72q-117 67 -227 67q-38 0 -79 -8.5t-87.5 -32.5t-82 -59.5t-59.5 -96t-24 -136.5q0 -101 48 -178t121 -114.5t157 -37.5q135 0 251 98v-82q-45 -33 -119 -57.5t-149 -24.5q-50 0 -101.5 15t-100.5 47.5 t-87.5 78.5t-62 113.5t-23.5 147.5z" />
<glyph unicode="d" horiz-adv-x="983" d="M57 369q0 164 117 280.5t281 116.5q101 0 185.5 -48t135.5 -136h4v880l72 25v-1475l-72 -24v162h-4q-48 -82 -133.5 -130.5t-187.5 -48.5q-164 0 -281 117t-117 281zM123 369q0 -137 97.5 -234.5t234.5 -97.5q136 0 233.5 97.5t97.5 234.5t-97 234t-234 97t-234.5 -97.5 t-97.5 -233.5z" />
<glyph unicode="e" horiz-adv-x="757" d="M37 367q0 70 27 140t76 128t126.5 94.5t169.5 36.5q105 0 188 -47t124 -117l-613 -371q46 -87 124.5 -140.5t172.5 -53.5q150 0 246 94v-82q-28 -28 -98.5 -53t-147.5 -25q-91 0 -168 36.5t-125.5 95t-75 127.5t-26.5 137zM102 375q0 -27 11 -84l534 323q-23 32 -79.5 59 t-121.5 27q-141 0 -242.5 -97.5t-101.5 -227.5z" />
<glyph unicode="f" horiz-adv-x="454" d="M156 -12v1204q0 54 13.5 99t33 74t49.5 52t54.5 34.5t56.5 20t47.5 11t35.5 4.5v-72q-108 -6 -163.5 -70t-55.5 -151v-457h224v-65h-224v-660z" />
<glyph unicode="g" horiz-adv-x="757" d="M72 485q0 47 18.5 94.5t54 90t96.5 69.5t138 27q54 0 100 -12l207 22l-33 -59l-86 -8v-4q38 -19 75.5 -79.5t37.5 -140.5q0 -50 -13.5 -90.5t-30.5 -64.5t-45 -44.5t-45.5 -29t-43.5 -18.5v-5q83 -19 132.5 -86t49.5 -172q0 -123 -95 -204.5t-227 -81.5q-59 0 -110 15 t-83.5 38.5t-50.5 41.5t-28 34l33 71q6 -16 20 -35t41 -43.5t73.5 -40.5t104.5 -16q60 0 109 21t79 55t46 73.5t16 78.5q0 101 -73 159t-177 58q-49 0 -89 -12t-61.5 -25.5t-49.5 -36.5l-41 47q1 1 15.5 13t19.5 15t18 11.5t26.5 14t30.5 10.5v4q-20 5 -45 23.5t-51.5 48 t-44.5 75.5t-18 98zM137 485q0 -93 64 -154t161 -61q108 0 180 54t72 161q0 97 -65.5 156t-169.5 59q-102 0 -172 -60t-70 -155z" />
<glyph unicode="h" horiz-adv-x="796" d="M109 -12v1474l71 25v-852h4q38 59 100.5 95t143.5 36q111 0 185.5 -62.5t74.5 -175.5v-516l-72 -24v522q0 91 -55.5 140.5t-132.5 49.5q-100 0 -174 -71t-74 -178v-439z" />
<glyph unicode="i" horiz-adv-x="305" d="M80 1065l72 74l73 -74l-73 -74zM117 -12v737l71 25v-738z" />
<glyph unicode="j" horiz-adv-x="305" d="M20 -225q51 14 74 49t23 102v799l71 25v-832q0 -87 -42.5 -146.5t-125.5 -82.5v86zM80 1065l72 74l73 -74l-73 -74z" />
<glyph unicode="k" horiz-adv-x="645" d="M117 -12v1474l71 25v-1139l369 402l51 -52l-323 -348l340 -311l-52 -51l-385 356v-332z" />
<glyph unicode="l" horiz-adv-x="305" d="M117 -12v1474l71 25v-1475z" />
<glyph unicode="m" horiz-adv-x="1099" d="M109 -12v737l71 25v-101h4q23 44 70.5 80.5t116.5 36.5q134 0 190 -125q32 54 84.5 89.5t118.5 35.5q103 0 165 -62.5t62 -185.5v-506l-71 -24v532q0 78 -38.5 129t-117.5 51q-66 0 -122 -55t-56 -156v-477l-72 -24v538q0 84 -41 129t-106 45q-75 0 -131 -61.5 t-56 -153.5v-473z" />
<glyph unicode="n" horiz-adv-x="796" d="M109 -12v737l71 25v-115h4q38 59 100.5 95t143.5 36q111 0 185.5 -62.5t74.5 -175.5v-516l-72 -24v522q0 91 -55.5 140.5t-132.5 49.5q-100 0 -174 -71t-74 -178v-439z" />
<glyph unicode="o" d="M57 369q0 166 116.5 281.5t281.5 115.5t281 -115t116 -282t-116 -282.5t-281 -115.5t-281.5 115.5t-116.5 282.5zM123 369q0 -139 97.5 -235.5t234.5 -96.5t234 96.5t97 235.5t-97 235t-234 96t-234.5 -96t-97.5 -235z" />
<glyph unicode="p" horiz-adv-x="983" d="M131 -311v1036l72 25v-168h4q51 88 135.5 136t185.5 48q165 0 281.5 -115.5t116.5 -281.5q0 -167 -116.5 -282.5t-281.5 -115.5q-102 0 -187.5 48.5t-133.5 130.5h-4v-437zM197 369q0 -137 97.5 -234.5t233.5 -97.5q137 0 234.5 96.5t97.5 235.5t-97.5 235t-234.5 96 q-136 0 -233.5 -97t-97.5 -234z" />
<glyph unicode="q" horiz-adv-x="983" d="M57 369q0 164 117 280.5t281 116.5q101 0 185.5 -48t135.5 -136h4v143l72 25v-1037l-72 -24v461h-4q-48 -82 -133.5 -130.5t-187.5 -48.5q-164 0 -281 117t-117 281zM123 369q0 -137 97.5 -234.5t234.5 -97.5q136 0 233.5 97.5t97.5 234.5t-97 234t-234 97t-234.5 -97.5 t-97.5 -233.5z" />
<glyph unicode="r" horiz-adv-x="417" d="M117 -12v737l71 25v-115h5q13 24 21 37t25.5 32.5t36.5 30t50 20t71 11.5v-82q-93 -2 -151 -54.5t-58 -166.5v-451z" />
<glyph unicode="s" horiz-adv-x="528" d="M57 59l45 56q67 -78 144 -78q21 0 45 6.5t49.5 21.5t42 45t16.5 70q0 34 -9 60t-20.5 41t-37 29t-41 20t-51.5 18q-26 9 -39.5 14t-39.5 17.5t-40 26t-30.5 33.5t-24 48t-7.5 62q0 101 68.5 159t159.5 58q94 0 170 -88l-39 -60q-65 82 -142 82q-50 0 -97.5 -36.5 t-47.5 -98.5q0 -58 22.5 -90t86.5 -53q34 -11 48.5 -16.5t45 -18t45 -22.5t35.5 -28t31 -36.5t18 -45.5t8 -58q0 -38 -13.5 -76.5t-40 -72.5t-72 -55.5t-101.5 -21.5q-39 0 -76 14.5t-58 30t-53 43.5z" />
<glyph unicode="t" horiz-adv-x="493" d="M82 672l24 65h52v234l71 24v-258h226v-65h-226v-436q0 -53 5 -84t21.5 -60.5t51.5 -42t92 -12.5q31 0 74 12l-20 -67q-67 -11 -86 -11q-43 0 -77 10.5t-55.5 25.5t-37 40t-23 44.5t-11.5 47.5t-4.5 42t-0.5 36v455h-76z" />
<glyph unicode="u" horiz-adv-x="796" d="M109 209v516l71 25v-517q0 -96 56 -146t143 -50q93 0 165 71.5t72 178.5v438l72 25v-738l-72 -24v114h-4q-27 -37 -51.5 -61.5t-73.5 -47t-108 -22.5q-118 0 -194 62t-76 176z" />
<glyph unicode="v" horiz-adv-x="757" d="M20 725l72 25l287 -648l293 648l65 -25l-358 -782z" />
<glyph unicode="w" horiz-adv-x="1402" d="M27 725l69 25l279 -639l321 655l301 -655l316 639l63 -25l-383 -762l-299 643l-323 -643z" />
<glyph unicode="x" horiz-adv-x="720" d="M39 29l280 348l-268 332l49 41l260 -322l258 322l52 -41l-269 -332l281 -348l-49 -41l-273 338l-272 -338z" />
<glyph unicode="y" horiz-adv-x="757" d="M4 713l66 37l321 -586l297 586l66 -25l-533 -1036l-65 24l192 373z" />
<glyph unicode="z" horiz-adv-x="720" d="M33 0l526 672h-487l18 65h598l-526 -671h522l-16 -66h-635z" />
<glyph unicode="{" horiz-adv-x="569" d="M61 563v82q47 2 81 29t50.5 71t23.5 87t7 90v311q0 76 11.5 125t35 74t51 34t68.5 9h119v-66h-113q-64 0 -85 -41t-21 -172v-309q0 -63 -13.5 -114.5t-35.5 -84t-42 -52t-42 -32.5q22 -13 42 -32t42 -52t35.5 -84t13.5 -114v-310q0 -131 21 -172t85 -41h113v-65h-119 q-41 0 -68.5 9t-51 33.5t-35 74t-11.5 124.5v312q0 47 -7 90t-23.5 86.5t-50.5 70.5t-81 29z" />
<glyph unicode="|" horiz-adv-x="454" d="M195 -512v2048h65v-2048h-65z" />
<glyph unicode="}" horiz-adv-x="569" d="M61 -201h113q64 0 85.5 41.5t21.5 171.5v310q0 63 13.5 114t35.5 84t42 52t42 32q-22 13 -42 32.5t-42 52t-35.5 84t-13.5 114.5v309q0 130 -21.5 171.5t-85.5 41.5h-113v66h119q41 0 68.5 -9t51 -34t35 -74t11.5 -125v-311q0 -47 7 -90t23.5 -87t50.5 -71t81 -29v-82 q-47 -2 -81 -29t-50.5 -70.5t-23.5 -86.5t-7 -90v-312q0 -75 -11.5 -124.5t-35 -74t-51 -33.5t-68.5 -9h-119v65z" />
<glyph unicode="~" horiz-adv-x="1228" d="M147 451q53 87 108 128.5t142 41.5q58 0 122 -22t110 -48t101.5 -48t100.5 -22q95 0 195 146l55 -37q-52 -78 -111 -126t-139 -48q-52 0 -112 21.5t-106 48t-105.5 48t-110.5 21.5q-38 0 -70 -13t-56.5 -39.5t-37.5 -44.5t-30 -48z" />
<glyph unicode="&#xa1;" horiz-adv-x="380" d="M117 1163l73 74l74 -74l-74 -73zM154 -262v1122l71 25v-1123z" />
<glyph unicode="&#xa2;" horiz-adv-x="1060" d="M209 373q0 153 96.5 262t249.5 131v147h55v-147q56 -1 126.5 -20.5t107.5 -40.5l-10 -72q-43 22 -66 32t-67.5 22t-90.5 13v-663q62 1 128 29t114 71v-82q-42 -29 -108 -54.5t-134 -29.5v-147h-55v147q-61 5 -121 33t-111 76t-82.5 124.5t-31.5 168.5zM274 367 q0 -141 81.5 -228.5t199.5 -101.5v663q-37 -5 -72 -16t-74.5 -36t-68 -60.5t-47.5 -92.5t-19 -128z" />
<glyph unicode="&#xa3;" horiz-adv-x="1060" d="M76 0l119 618h-115v66h127l82 426q37 194 137.5 297.5t261.5 103.5q90 0 172 -34.5t144 -102.5l-46 -47q-57 60 -125.5 89.5t-134.5 29.5q-132 0 -219.5 -83.5t-124.5 -272.5l-78 -406h578v-66h-592l-106 -552h870l-25 -66h-925z" />
<glyph unicode="&#xa4;" horiz-adv-x="1060" d="M88 662q0 165 109 286l-103 101l51 45l97 -97q125 104 288 107q165 0 289 -109l96 99l50 -50l-101 -96q109 -121 109 -286q0 -169 -109 -287l101 -99l-50 -49l-96 101q-126 -111 -289 -111q-162 0 -288 111l-97 -101l-51 45l103 101q-106 123 -109 289zM160 662 q0 -155 108 -264t262 -109q155 0 263 109t108 264q0 154 -108 262t-263 108q-154 0 -262 -108t-108 -262z" />
<glyph unicode="&#xa5;" horiz-adv-x="1060" d="M35 1462l69 25l426 -887l426 887l70 -25l-430 -884h283v-66h-314v-160h314v-65h-314v-275l-71 -24v299h-314v65h314v160h-314v66h283z" />
<glyph unicode="&#xa6;" horiz-adv-x="454" d="M195 -358v716h65v-716h-65zM195 666v716h65v-716h-65z" />
<glyph unicode="&#xa7;" horiz-adv-x="757" d="M70 651q0 89 47.5 156t140.5 98v4q-56 9 -94.5 60.5t-38.5 122.5q0 110 77 178.5t189 68.5q186 0 273 -200l-52 -45q-39 93 -88 136.5t-139 43.5q-82 0 -138.5 -48t-56.5 -134q0 -73 50.5 -111.5t158.5 -52.5q149 -19 219 -84t70 -187q0 -83 -51.5 -149.5t-128.5 -85.5 v-4q64 -15 111 -69.5t47 -141.5q0 -115 -83 -179.5t-204 -64.5q-194 0 -287 178l53 45q42 -76 96.5 -116.5t137.5 -40.5q99 0 160 48.5t61 133.5q0 79 -55.5 124t-192.5 56q-139 13 -210.5 86t-71.5 174zM135 666q0 -54 23 -97t59.5 -68t78 -37.5t83.5 -12.5 q63 0 112.5 19.5t77 50.5t41 65.5t13.5 68.5q0 91 -67 150t-189 59q-48 0 -88.5 -14t-66 -35.5t-44 -48.5t-26 -52.5t-7.5 -47.5z" />
<glyph unicode="&#xa8;" horiz-adv-x="303" d="M-72 1028l74 74l74 -74l-74 -74zM227 1028l74 74l74 -74l-74 -74z" />
<glyph unicode="&#xa9;" horiz-adv-x="1638" d="M45 737q0 158 61 301t165 247t247 165t301 61t301 -61t247 -165t165 -247t61 -301t-61 -301t-165 -247t-247 -165t-301 -61t-301 61t-247 165t-165 247t-61 301zM111 737q0 -144 56 -275t151 -226t226 -151t275 -56t275.5 56t226.5 151t151 226t56 275q0 115 -36 223.5 t-101.5 195.5t-152.5 152.5t-195.5 101.5t-223.5 36q-144 0 -275 -56t-226 -151t-151 -226.5t-56 -275.5zM371 737q0 213 122.5 347.5t325.5 134.5q153 0 262.5 -84.5t132.5 -233.5h-65q-26 124 -113 188t-217 64q-179 0 -281 -115t-102 -301q0 -178 105.5 -300t277.5 -122 q132 0 218 66t112 199h65q-22 -151 -129.5 -240.5t-265.5 -89.5q-197 0 -322.5 139t-125.5 348z" />
<glyph unicode="&#xaa;" horiz-adv-x="468" d="M53 1026q0 67 50.5 115.5t129.5 48.5q51 0 84.5 -20.5t44.5 -41.5h5v70q0 29 -1.5 41.5t-8.5 26.5t-24.5 19t-47.5 5q-17 0 -50 -3t-38 -3l16 49q49 6 72 6q46 0 75 -10.5t40 -30t13.5 -33t2.5 -34.5v-350l-49 -17v68h-5q-44 -68 -133 -68q-73 0 -124.5 46t-51.5 116z M102 1026q0 -50 39.5 -85.5t94.5 -35.5q54 0 92.5 35.5t38.5 85.5q0 51 -38.5 87t-92.5 36q-56 0 -95 -36t-39 -87z" />
<glyph unicode="&#xab;" horiz-adv-x="645" d="M45 369l250 247l41 -41l-209 -206l209 -207l-41 -41zM309 369l250 247l41 -41l-209 -206l209 -207l-41 -41z" />
<glyph unicode="&#xac;" horiz-adv-x="1228" d="M96 684v66h1037v-529h-66v463h-971z" />
<glyph unicode="&#xad;" horiz-adv-x="530" d="M96 356v66h338v-66h-338z" />
<glyph unicode="&#xae;" horiz-adv-x="1638" d="M45 737q0 158 61 301t165 247t247 165t301 61t301 -61t247 -165t165 -247t61 -301t-61 -301t-165 -247t-247 -165t-301 -61t-301 61t-247 165t-165 247t-61 301zM111 737q0 -144 56 -275t151 -226t226 -151t275 -56t275.5 56t226.5 151t151 226t56 275q0 115 -36 223.5 t-101.5 195.5t-152.5 152.5t-195.5 101.5t-223.5 36q-144 0 -275 -56t-226 -151t-151 -226.5t-56 -275.5zM512 283v903h348q145 0 220 -55.5t75 -196.5q0 -204 -231 -242l272 -409h-78l-272 409h-268v-409h-66zM578 758h239q150 0 211.5 43t61.5 133q0 102 -56 144t-157 42 h-299v-362z" />
<glyph unicode="&#xaf;" horiz-adv-x="303" d="M-72 993v66h447v-66h-447z" />
<glyph unicode="&#xb0;" horiz-adv-x="819" d="M113 1042q0 123 87 210t210 87t210 -87t87 -210t-87 -210t-210 -87t-210 87t-87 210zM168 1042q0 -100 71 -170.5t171 -70.5t170.5 70.5t70.5 170.5t-70.5 171t-170.5 71t-171 -71t-71 -171z" />
<glyph unicode="&#xb1;" horiz-adv-x="1228" d="M96 0v66h1037v-66h-1037zM96 578v65h486v393h65v-393h486v-65h-486v-394h-65v394h-486z" />
<glyph unicode="&#xb2;" horiz-adv-x="681" d="M59 537q23 18 68 55q66 53 98.5 79.5t88.5 73.5t84.5 75.5t66.5 69t56.5 70.5t32 63.5t13.5 63.5q0 54 -21 95t-54.5 62t-66.5 30.5t-65 9.5q-55 0 -99 -20t-68 -50.5t-36 -60.5t-12 -55q0 -84 60 -134t153 -61l-47 -39q-101 25 -161 83.5t-60 150.5q0 101 75 171t195 70 q112 0 187.5 -69t75.5 -172q0 -33 -11 -68.5t-26.5 -65t-45.5 -66t-52.5 -61.5t-65 -64t-66 -59.5t-72 -60.5t-67.5 -57v-4h406l-17 -55h-547z" />
<glyph unicode="&#xb3;" horiz-adv-x="681" d="M94 635l35 47q32 -32 52.5 -49t61.5 -34t87 -17q77 0 139.5 46t62.5 126q0 79 -67 121.5t-150 42.5h-67v55q35 1 58.5 2t56 4.5t54 9.5t44.5 17t37 26.5t23 39t9 52.5q0 68 -53.5 114t-134.5 46q-59 0 -104.5 -21t-96.5 -63l-28 45q52 48 107 71t130 23q100 0 168 -61.5 t68 -153.5q0 -132 -142 -178v-4q144 -46 144 -188q0 -103 -74 -165.5t-190 -62.5q-129 0 -230 109z" />
<glyph unicode="&#xb4;" horiz-adv-x="303" d="M109 918l170 245l71 -28l-186 -242z" />
<glyph unicode="&#xb6;" horiz-adv-x="757" d="M31 1001q0 152 97.5 237t244.5 85h268v-1343h-66v1277h-167v-1277h-66v706q-119 9 -215 101t-96 214zM96 1001q0 -86 72.5 -161.5t173.5 -87.5v505q-113 -9 -179.5 -79t-66.5 -177z" />
<glyph unicode="&#xb7;" horiz-adv-x="530" d="M199 561q0 28 19.5 48t45.5 20q28 0 48 -20t20 -48t-20 -47.5t-48 -19.5q-26 0 -45.5 19.5t-19.5 47.5z" />
<glyph unicode="&#xb8;" horiz-adv-x="303" d="M78 -330q47 76 47 133q0 52 -27 127h78q14 -47 14 -104q0 -89 -71 -191z" />
<glyph unicode="&#xb9;" horiz-adv-x="378" d="M53 1243l174 96v-794l-55 -19v727l-104 -55z" />
<glyph unicode="&#xba;" horiz-adv-x="737" d="M111 1102q0 98 76 167.5t182 69.5q107 0 182.5 -69.5t75.5 -167.5t-75.5 -168t-182.5 -70q-106 0 -182 70t-76 168zM160 1102q0 -74 62.5 -131.5t146.5 -57.5q83 0 146 57.5t63 131.5t-63 131t-146 57q-84 0 -146.5 -57t-62.5 -131z" />
<glyph unicode="&#xbb;" horiz-adv-x="645" d="M45 162l209 207l-209 206l41 41l250 -247l-250 -248zM309 162l209 207l-209 206l41 41l250 -247l-250 -248z" />
<glyph unicode="&#xbc;" horiz-adv-x="1708" d="M256 1243l174 96v-794l-55 -19v727l-105 -55zM276 -16l971 1355h72l-971 -1355h-72zM872 211l453 592v-537h127v-55h-127v-203l-55 -18v221h-398zM975 266h295v373h-4z" />
<glyph unicode="&#xbd;" horiz-adv-x="1708" d="M236 1243l174 96v-794l-56 -19v727l-104 -55zM242 -16l970 1355h72l-971 -1355h-71zM950 0q228 184 278 229q192 168 223 275q7 25 7 47q0 54 -21 95t-54.5 62t-66.5 30.5t-65 9.5q-55 0 -99 -20.5t-68 -50.5t-36 -60.5t-12 -55.5q0 -84 59.5 -133.5t153.5 -60.5l-47 -39 q-102 25 -161.5 83t-59.5 150q0 101 75 171.5t195 70.5q112 0 187 -69.5t75 -172.5q0 -33 -11 -68.5t-26 -64.5t-45 -66.5t-52.5 -62t-65 -63.5t-66 -59t-72 -61t-67.5 -57v-4h405l-16 -55h-547z" />
<glyph unicode="&#xbe;" horiz-adv-x="1708" d="M150 635l34 47q32 -32 52.5 -49t61.5 -34t87 -17q77 0 140 46t63 126q0 79 -67 121.5t-150 42.5h-68v55q35 1 58.5 2t56 4.5t54 9.5t45 17t37.5 26.5t23 39t9 52.5q0 68 -54 114t-135 46q-59 0 -104 -20.5t-96 -63.5l-29 45q52 48 107.5 71t130.5 23q100 0 167.5 -61.5 t67.5 -153.5q0 -133 -141 -178v-4q143 -46 143 -188q0 -103 -74 -165.5t-190 -62.5q-128 0 -229 109zM383 -16l971 1355h71l-970 -1355h-72zM979 211l453 592v-537h127v-55h-127v-203l-56 -18v221h-397zM1081 266h295v373h-4z" />
<glyph unicode="&#xbf;" horiz-adv-x="872" d="M78 113q0 61 20 116.5t57.5 101t74 78.5t87.5 70q42 30 58.5 52.5t24.5 64.5t8 129v135l71 25v-199q0 -44 -2.5 -75t-12.5 -58.5t-18 -43t-33 -39.5t-42.5 -37.5t-59.5 -45.5q-161 -122 -161 -274q0 -135 99.5 -234.5t223.5 -99.5q241 0 324 256l71 -21 q-13 -38 -29 -72.5t-49 -78.5t-73.5 -75t-104.5 -53t-139 -22q-103 0 -192 47t-146 140t-57 213zM373 1163l73 74l74 -74l-74 -73z" />
<glyph unicode="&#xc0;" horiz-adv-x="1478" d="M16 12l715 1475l731 -1475l-69 -24l-346 706h-629l-332 -706zM455 766h559l-283 592zM541 1804l71 29l170 -246l-55 -24z" />
<glyph unicode="&#xc1;" horiz-adv-x="1478" d="M16 12l715 1475l731 -1475l-69 -24l-346 706h-629l-332 -706zM455 766h559l-283 592zM696 1587l170 246l72 -29l-186 -241z" />
<glyph unicode="&#xc2;" horiz-adv-x="1478" d="M16 12l715 1475l731 -1475l-69 -24l-346 706h-629l-332 -706zM455 766h559l-283 592zM545 1589l166 244h55l168 -244l-49 -26l-146 198l-145 -198z" />
<glyph unicode="&#xc3;" horiz-adv-x="1478" d="M16 12l715 1475l731 -1475l-69 -24l-346 706h-629l-332 -706zM455 766h559l-283 592zM502 1661q9 31 24 53t29 33t33 17t30 7t27 1q27 0 100 -29q6 -3 20.5 -9.5t21.5 -10t18 -7.5t19.5 -6t15.5 -2q6 0 16 3t28 18t31 40l62 -30q-28 -50 -61.5 -76.5t-84.5 -26.5 q-28 0 -100 33q-7 3 -26 10.5t-28 10.5t-23 6.5t-25 3.5q-24 0 -36 -11t-28 -40z" />
<glyph unicode="&#xc4;" horiz-adv-x="1478" d="M16 12l715 1475l731 -1475l-69 -24l-346 706h-629l-332 -706zM455 766h559l-283 592zM516 1698l74 74l74 -74l-74 -74zM815 1698l74 74l74 -74l-74 -74z" />
<glyph unicode="&#xc5;" horiz-adv-x="1478" d="M16 12l715 1475l731 -1475l-69 -24l-346 706h-629l-332 -706zM455 766h559l-283 592zM604 1665q0 55 40 95t95 40t95 -40t40 -95t-40 -95t-95 -40t-95 40t-40 95zM653 1665q0 -35 25.5 -60.5t60.5 -25.5t60.5 25.5t25.5 60.5t-25.5 60.5t-60.5 25.5t-60.5 -25.5 t-25.5 -60.5z" />
<glyph unicode="&#xc6;" horiz-adv-x="1933" d="M-8 12l971 1463h794l21 -72h-740l90 -637h631v-72h-620l94 -622h682l-31 -72h-713l-104 694h-528l-476 -706zM580 766h477l-90 598z" />
<glyph unicode="&#xc7;" horiz-adv-x="1366" d="M78 737q0 159 61 302.5t164 247t244 164t295 60.5q268 0 489 -165l-53 -58q-192 152 -426 152q-190 0 -352 -94.5t-256 -256.5t-94 -352q0 -114 35.5 -221t100.5 -193.5t151.5 -151.5t193.5 -100.5t221 -35.5q125 0 219 34t213 111l47 -51q-219 -166 -479 -166 q-158 0 -301 60t-247 163t-165 247t-61 304zM776 -330q47 76 47 133q0 55 -26 127h77q15 -51 15 -104q0 -87 -72 -191z" />
<glyph unicode="&#xc8;" d="M154 0v1475h663l25 -72h-617v-612h543v-72h-543v-647h666l-37 -72h-700zM256 1804l72 29l170 -246l-56 -24z" />
<glyph unicode="&#xc9;" d="M154 0v1475h663l25 -72h-617v-612h543v-72h-543v-647h666l-37 -72h-700zM412 1587l170 246l71 -29l-186 -241z" />
<glyph unicode="&#xca;" d="M154 0v1475h663l25 -72h-617v-612h543v-72h-543v-647h666l-37 -72h-700zM260 1589l166 244h55l168 -244l-49 -26l-145 198l-146 -198z" />
<glyph unicode="&#xcb;" d="M154 0v1475h663l25 -72h-617v-612h543v-72h-543v-647h666l-37 -72h-700zM231 1698l74 74l74 -74l-74 -74zM530 1698l74 74l74 -74l-74 -74z" />
<glyph unicode="&#xcc;" horiz-adv-x="378" d="M-8 1804l71 29l170 -246l-55 -24zM154 -12v1474l71 25v-1475z" />
<glyph unicode="&#xcd;" horiz-adv-x="378" d="M147 1587l170 246l72 -29l-186 -241zM154 -12v1474l71 25v-1475z" />
<glyph unicode="&#xce;" horiz-adv-x="378" d="M-4 1589l166 244h55l168 -244l-49 -26l-146 198l-145 -198zM154 -12v1474l71 25v-1475z" />
<glyph unicode="&#xcf;" horiz-adv-x="378" d="M-33 1698l74 74l74 -74l-74 -74zM154 -12v1474l71 25v-1475zM266 1698l74 74l74 -74l-74 -74z" />
<glyph unicode="&#xd0;" horiz-adv-x="1138" d="M0 719v72h143v684h152q153 0 290 -52.5t238.5 -146.5t161 -234t59.5 -305q0 -104 -26.5 -204.5t-89.5 -198t-155 -171t-234.5 -118.5t-317.5 -45h-78v719h-143zM215 72h41q152 0 284 47t227.5 132t150.5 210.5t55 275.5q0 200 -94 352.5t-256.5 233t-366.5 80.5h-41v-612 h395v-72h-395v-647z" />
<glyph unicode="&#xd1;" horiz-adv-x="1554" d="M154 -12v1511l1175 -1335v1298l72 25v-1512l-1176 1344v-1307zM541 1661q9 31 24 53t29 33t33 17t30 7t27 1q28 0 100 -29q6 -3 20.5 -9.5t21.5 -10t18 -7.5t19.5 -6t15.5 -2q6 0 16 3t28 18t31 40l62 -30q-28 -50 -61.5 -76.5t-84.5 -26.5q-28 0 -100 33q-7 3 -26 10.5 t-28 10.5t-23 6.5t-25 3.5q-24 0 -36 -11t-28 -40z" />
<glyph unicode="&#xd2;" horiz-adv-x="1703" d="M78 737q0 158 61 301t165 247t247 165t301 61t301 -61t247 -165t165 -247t61 -301t-61 -301t-165 -247t-247 -165t-301 -61t-301 61t-247 165t-165 247t-61 301zM150 737q0 -114 35.5 -221t100.5 -193.5t151.5 -151.5t193.5 -100.5t221 -35.5t221 35.5t193.5 100.5 t151.5 151.5t100.5 193.5t35.5 221q0 190 -94 352t-256 256.5t-352 94.5t-352 -94.5t-256 -256.5t-94 -352zM653 1804l72 29l170 -246l-55 -24z" />
<glyph unicode="&#xd3;" horiz-adv-x="1703" d="M78 737q0 158 61 301t165 247t247 165t301 61t301 -61t247 -165t165 -247t61 -301t-61 -301t-165 -247t-247 -165t-301 -61t-301 61t-247 165t-165 247t-61 301zM150 737q0 -114 35.5 -221t100.5 -193.5t151.5 -151.5t193.5 -100.5t221 -35.5t221 35.5t193.5 100.5 t151.5 151.5t100.5 193.5t35.5 221q0 190 -94 352t-256 256.5t-352 94.5t-352 -94.5t-256 -256.5t-94 -352zM809 1587l170 246l72 -29l-187 -241z" />
<glyph unicode="&#xd4;" horiz-adv-x="1703" d="M78 737q0 158 61 301t165 247t247 165t301 61t301 -61t247 -165t165 -247t61 -301t-61 -301t-165 -247t-247 -165t-301 -61t-301 61t-247 165t-165 247t-61 301zM150 737q0 -114 35.5 -221t100.5 -193.5t151.5 -151.5t193.5 -100.5t221 -35.5t221 35.5t193.5 100.5 t151.5 151.5t100.5 193.5t35.5 221q0 190 -94 352t-256 256.5t-352 94.5t-352 -94.5t-256 -256.5t-94 -352zM657 1589l166 244h56l168 -244l-50 -26l-145 198l-145 -198z" />
<glyph unicode="&#xd5;" horiz-adv-x="1703" d="M78 737q0 158 61 301t165 247t247 165t301 61t301 -61t247 -165t165 -247t61 -301t-61 -301t-165 -247t-247 -165t-301 -61t-301 61t-247 165t-165 247t-61 301zM150 737q0 -114 35.5 -221t100.5 -193.5t151.5 -151.5t193.5 -100.5t221 -35.5t221 35.5t193.5 100.5 t151.5 151.5t100.5 193.5t35.5 221q0 190 -94 352t-256 256.5t-352 94.5t-352 -94.5t-256 -256.5t-94 -352zM614 1661q11 38 29.5 63t41.5 34t38 11.5t35 2.5q28 0 100 -29q7 -3 20.5 -9.5t21 -10t18 -7.5t19 -6t15.5 -2q6 0 16 3t28.5 18t31.5 40l62 -30 q-28 -50 -61.5 -76.5t-84.5 -26.5q-28 0 -100 33q-6 2 -26 10t-29 11t-23 6.5t-25 3.5q-24 0 -35.5 -11t-27.5 -40z" />
<glyph unicode="&#xd6;" horiz-adv-x="1703" d="M78 737q0 158 61 301t165 247t247 165t301 61t301 -61t247 -165t165 -247t61 -301t-61 -301t-165 -247t-247 -165t-301 -61t-301 61t-247 165t-165 247t-61 301zM150 737q0 -114 35.5 -221t100.5 -193.5t151.5 -151.5t193.5 -100.5t221 -35.5t221 35.5t193.5 100.5 t151.5 151.5t100.5 193.5t35.5 221q0 190 -94 352t-256 256.5t-352 94.5t-352 -94.5t-256 -256.5t-94 -352zM629 1698l73 74l74 -74l-74 -74zM928 1698l73 74l74 -74l-74 -74z" />
<glyph unicode="&#xd7;" horiz-adv-x="1228" d="M170 119l399 399l-399 400l45 45l399 -400l400 400l45 -45l-400 -400l400 -399l-45 -45l-400 399l-399 -399z" />
<glyph unicode="&#xd8;" horiz-adv-x="1703" d="M78 737q0 158 61 301t165 247t247 165t301 61q140 0 269 -48t231 -134l157 172l54 -45l-160 -174q106 -108 164.5 -248t58.5 -297q0 -158 -61 -301t-165 -247t-247 -165t-301 -61q-280 0 -496 178l-174 -190l-49 49l172 188q-107 107 -167 249.5t-60 299.5zM150 737 q0 -142 54 -269.5t150 -225.5l949 1034q-198 164 -451 164q-190 0 -352 -94.5t-256 -256.5t-94 -352zM406 195q201 -160 446 -160q114 0 221 35.5t193.5 100.5t151.5 151.5t100.5 193.5t35.5 221q0 140 -53 267.5t-147 224.5z" />
<glyph unicode="&#xd9;" horiz-adv-x="1327" d="M135 459v1003l72 25v-1022q0 -201 124.5 -315.5t323.5 -114.5q32 0 67 4.5t81.5 18.5t89 36t85 61t73 89t50 124.5t19.5 163.5v930l72 25v-1475l-72 -24v245h-6q-55 -112 -183 -191t-276 -79q-71 0 -140.5 15.5t-139.5 53t-122.5 92.5t-85 141.5t-32.5 193.5zM465 1804 l72 29l170 -246l-56 -24z" />
<glyph unicode="&#xda;" horiz-adv-x="1327" d="M135 459v1003l72 25v-1022q0 -201 124.5 -315.5t323.5 -114.5q32 0 67 4.5t81.5 18.5t89 36t85 61t73 89t50 124.5t19.5 163.5v930l72 25v-1475l-72 -24v245h-6q-55 -112 -183 -191t-276 -79q-71 0 -140.5 15.5t-139.5 53t-122.5 92.5t-85 141.5t-32.5 193.5zM621 1587 l170 246l71 -29l-186 -241z" />
<glyph unicode="&#xdb;" horiz-adv-x="1327" d="M135 459v1003l72 25v-1022q0 -201 124.5 -315.5t323.5 -114.5q32 0 67 4.5t81.5 18.5t89 36t85 61t73 89t50 124.5t19.5 163.5v930l72 25v-1475l-72 -24v245h-6q-55 -112 -183 -191t-276 -79q-71 0 -140.5 15.5t-139.5 53t-122.5 92.5t-85 141.5t-32.5 193.5zM469 1589 l166 244h55l168 -244l-49 -26l-145 198l-146 -198z" />
<glyph unicode="&#xdc;" horiz-adv-x="1327" d="M135 459v1003l72 25v-1022q0 -201 124.5 -315.5t323.5 -114.5q32 0 67 4.5t81.5 18.5t89 36t85 61t73 89t50 124.5t19.5 163.5v930l72 25v-1475l-72 -24v245h-6q-55 -112 -183 -191t-276 -79q-71 0 -140.5 15.5t-139.5 53t-122.5 92.5t-85 141.5t-32.5 193.5zM440 1698 l74 74l74 -74l-74 -74zM739 1698l74 74l74 -74l-74 -74z" />
<glyph unicode="&#xdd;" horiz-adv-x="1138" d="M25 1462l71 25l482 -928l471 928l65 -25l-754 -1474l-71 24l243 471zM526 1587l170 246l72 -29l-186 -241z" />
<glyph unicode="&#xde;" d="M164 -12v1474l72 25v-244h45q136 0 247 -39t183 -107.5t110.5 -159t38.5 -194.5t-38.5 -194.5t-110.5 -158.5t-183 -107t-247 -39h-45v-232zM236 315h90q92 0 174.5 28.5t147 81.5t102.5 135.5t38 182.5q0 97 -40 179.5t-105.5 135.5t-147.5 83t-169 30h-90v-856z" />
<glyph unicode="&#xdf;" horiz-adv-x="872" d="M117 -12v1175q0 86 24.5 150.5t67.5 101.5t95 54.5t114 17.5q173 0 262.5 -104t89.5 -269q0 -275 -256 -344v-4q150 -14 225.5 -117t75.5 -262q0 -182 -120 -299t-302 -117q-43 0 -98 11v71q61 -16 111 -16q33 0 73 8.5t89.5 33.5t88.5 62.5t66 103t27 148.5 q0 70 -17 126t-41.5 91.5t-64 60.5t-71.5 37t-79 18.5t-70.5 7.5t-60.5 1h-27v66q113 0 193 28t120 76t56.5 98.5t16.5 110.5q0 128 -77.5 217.5t-201.5 89.5q-238 0 -238 -270v-1139z" />
<glyph unicode="&#xe0;" horiz-adv-x="720" d="M57 244q0 109 76 190.5t193 81.5q135 0 202 -102h4v116q0 33 -0.5 47.5t-2.5 38t-6.5 32.5t-13 22t-22 17.5t-33 8.5t-46.5 4q-25 0 -71.5 -4.5t-64.5 -5.5l25 66q82 10 111 10q41 0 73 -7.5t52 -17.5t34.5 -27.5t21.5 -31t10.5 -35.5t4 -32.5t0.5 -30.5v-572l-65 -24v98 h-4q-19 -25 -33.5 -40.5t-41 -35t-62 -29.5t-79.5 -10q-107 0 -184.5 78t-77.5 195zM123 244q0 -86 60.5 -146.5t148.5 -60.5q86 0 146.5 60.5t60.5 146.5t-60.5 146.5t-146.5 60.5q-88 0 -148.5 -60.5t-60.5 -146.5zM162 1135l71 28l170 -245l-55 -25z" />
<glyph unicode="&#xe1;" horiz-adv-x="720" d="M57 244q0 109 76 190.5t193 81.5q135 0 202 -102h4v116q0 33 -0.5 47.5t-2.5 38t-6.5 32.5t-13 22t-22 17.5t-33 8.5t-46.5 4q-25 0 -71.5 -4.5t-64.5 -5.5l25 66q82 10 111 10q41 0 73 -7.5t52 -17.5t34.5 -27.5t21.5 -31t10.5 -35.5t4 -32.5t0.5 -30.5v-572l-65 -24v98 h-4q-19 -25 -33.5 -40.5t-41 -35t-62 -29.5t-79.5 -10q-107 0 -184.5 78t-77.5 195zM123 244q0 -86 60.5 -146.5t148.5 -60.5q86 0 146.5 60.5t60.5 146.5t-60.5 146.5t-146.5 60.5q-88 0 -148.5 -60.5t-60.5 -146.5zM317 918l170 245l72 -28l-186 -242z" />
<glyph unicode="&#xe2;" horiz-adv-x="720" d="M57 244q0 109 76 190.5t193 81.5q135 0 202 -102h4v116q0 33 -0.5 47.5t-2.5 38t-6.5 32.5t-13 22t-22 17.5t-33 8.5t-46.5 4q-25 0 -71.5 -4.5t-64.5 -5.5l25 66q82 10 111 10q41 0 73 -7.5t52 -17.5t34.5 -27.5t21.5 -31t10.5 -35.5t4 -32.5t0.5 -30.5v-572l-65 -24v98 h-4q-19 -25 -33.5 -40.5t-41 -35t-62 -29.5t-79.5 -10q-107 0 -184.5 78t-77.5 195zM123 244q0 -86 60.5 -146.5t148.5 -60.5q86 0 146.5 60.5t60.5 146.5t-60.5 146.5t-146.5 60.5q-88 0 -148.5 -60.5t-60.5 -146.5zM166 920l166 243h55l168 -243l-49 -27l-146 199 l-145 -199z" />
<glyph unicode="&#xe3;" horiz-adv-x="720" d="M57 244q0 109 76 190.5t193 81.5q135 0 202 -102h4v116q0 33 -0.5 47.5t-2.5 38t-6.5 32.5t-13 22t-22 17.5t-33 8.5t-46.5 4q-25 0 -71.5 -4.5t-64.5 -5.5l25 66q82 10 111 10q41 0 73 -7.5t52 -17.5t34.5 -27.5t21.5 -31t10.5 -35.5t4 -32.5t0.5 -30.5v-572l-65 -24v98 h-4q-19 -25 -33.5 -40.5t-41 -35t-62 -29.5t-79.5 -10q-107 0 -184.5 78t-77.5 195zM123 244q0 -86 60.5 -146.5t148.5 -60.5q86 0 146.5 60.5t60.5 146.5t-60.5 146.5t-146.5 60.5q-88 0 -148.5 -60.5t-60.5 -146.5zM123 991q9 31 24 53t29 33t33 17t30 7t27 1 q28 0 101 -29q7 -3 20.5 -9.5t21 -10t18 -7.5t19 -6t15.5 -2q6 0 16 3.5t28.5 18.5t31.5 40l61 -31q-28 -50 -61 -76t-84 -26q-31 0 -101 32q-7 3 -26 10.5t-28 10.5t-23 6.5t-25 3.5q-24 0 -36 -11t-28 -40z" />
<glyph unicode="&#xe4;" horiz-adv-x="720" d="M57 244q0 109 76 190.5t193 81.5q135 0 202 -102h4v116q0 33 -0.5 47.5t-2.5 38t-6.5 32.5t-13 22t-22 17.5t-33 8.5t-46.5 4q-25 0 -71.5 -4.5t-64.5 -5.5l25 66q82 10 111 10q41 0 73 -7.5t52 -17.5t34.5 -27.5t21.5 -31t10.5 -35.5t4 -32.5t0.5 -30.5v-572l-65 -24v98 h-4q-19 -25 -33.5 -40.5t-41 -35t-62 -29.5t-79.5 -10q-107 0 -184.5 78t-77.5 195zM123 244q0 -86 60.5 -146.5t148.5 -60.5q86 0 146.5 60.5t60.5 146.5t-60.5 146.5t-146.5 60.5q-88 0 -148.5 -60.5t-60.5 -146.5zM137 1028l74 74l74 -74l-74 -74zM436 1028l74 74l74 -74 l-74 -74z" />
<glyph unicode="&#xe5;" horiz-adv-x="720" d="M57 244q0 109 76 190.5t193 81.5q135 0 202 -102h4v116q0 33 -0.5 47.5t-2.5 38t-6.5 32.5t-13 22t-22 17.5t-33 8.5t-46.5 4q-25 0 -71.5 -4.5t-64.5 -5.5l25 66q82 10 111 10q41 0 73 -7.5t52 -17.5t34.5 -27.5t21.5 -31t10.5 -35.5t4 -32.5t0.5 -30.5v-572l-65 -24v98 h-4q-19 -25 -33.5 -40.5t-41 -35t-62 -29.5t-79.5 -10q-107 0 -184.5 78t-77.5 195zM123 244q0 -86 60.5 -146.5t148.5 -60.5q86 0 146.5 60.5t60.5 146.5t-60.5 146.5t-146.5 60.5q-88 0 -148.5 -60.5t-60.5 -146.5zM225 991q0 55 39.5 95t95.5 40t96 -40t40 -95t-40 -95 t-96 -40t-95.5 40t-39.5 95zM274 991q0 -35 25.5 -60.5t60.5 -25.5t60.5 25.5t25.5 60.5t-25.5 60.5t-60.5 25.5t-60.5 -25.5t-25.5 -60.5z" />
<glyph unicode="&#xe6;" horiz-adv-x="1251" d="M57 244q0 109 76 190.5t193 81.5q135 0 202 -102h4v116q0 33 -0.5 47.5t-2.5 38t-6.5 32.5t-13 22t-22 17.5t-33 8.5t-46.5 4q-25 0 -71.5 -4.5t-64.5 -5.5l25 66q78 10 109 10q55 0 92.5 -10.5t57.5 -25.5t31 -42t13 -48.5t2 -57.5h4q49 86 132 135t192 49 q105 0 187.5 -47t123.5 -117l-612 -371q46 -87 124.5 -140.5t172.5 -53.5q149 0 245 94v-82q-28 -28 -98 -53t-147 -25q-106 0 -189 47.5t-135 126.5h-4v-133l-59 -24v98h-4q-19 -25 -33.5 -40.5t-41 -35t-62 -29.5t-79.5 -10q-107 0 -184.5 78t-77.5 195zM123 244 q0 -86 60.5 -146.5t148.5 -60.5q86 0 146.5 60.5t60.5 146.5t-60.5 146.5t-146.5 60.5q-88 0 -148.5 -60.5t-60.5 -146.5zM598 375q0 -43 8 -84l535 323q-23 32 -79.5 59t-121.5 27q-140 0 -241 -97.5t-101 -227.5z" />
<glyph unicode="&#xe7;" horiz-adv-x="720" d="M57 373q0 167 114 280t284 113q66 0 131 -18.5t106 -42.5l-10 -72q-117 67 -227 67q-38 0 -79 -8.5t-87.5 -32.5t-82 -59.5t-59.5 -96t-24 -136.5q0 -101 48 -178t121 -114.5t157 -37.5q135 0 251 98v-82q-45 -33 -119 -57.5t-149 -24.5q-50 0 -101.5 15t-100.5 47.5 t-87.5 78.5t-62 113.5t-23.5 147.5zM367 -330q47 76 47 133q0 52 -27 127h78q14 -47 14 -104q0 -89 -71 -191z" />
<glyph unicode="&#xe8;" horiz-adv-x="757" d="M37 367q0 70 27 140t76 128t126.5 94.5t169.5 36.5q105 0 188 -47t124 -117l-613 -371q46 -87 124.5 -140.5t172.5 -53.5q150 0 246 94v-82q-28 -28 -98.5 -53t-147.5 -25q-91 0 -168 36.5t-125.5 95t-75 127.5t-26.5 137zM102 375q0 -27 11 -84l534 323q-23 32 -79.5 59 t-121.5 27q-141 0 -242.5 -97.5t-101.5 -227.5zM180 1135l72 28l170 -245l-55 -25z" />
<glyph unicode="&#xe9;" horiz-adv-x="757" d="M37 367q0 70 27 140t76 128t126.5 94.5t169.5 36.5q105 0 188 -47t124 -117l-613 -371q46 -87 124.5 -140.5t172.5 -53.5q150 0 246 94v-82q-28 -28 -98.5 -53t-147.5 -25q-91 0 -168 36.5t-125.5 95t-75 127.5t-26.5 137zM102 375q0 -27 11 -84l534 323q-23 32 -79.5 59 t-121.5 27q-141 0 -242.5 -97.5t-101.5 -227.5zM336 918l170 245l72 -28l-187 -242z" />
<glyph unicode="&#xea;" horiz-adv-x="757" d="M37 367q0 70 27 140t76 128t126.5 94.5t169.5 36.5q105 0 188 -47t124 -117l-613 -371q46 -87 124.5 -140.5t172.5 -53.5q150 0 246 94v-82q-28 -28 -98.5 -53t-147.5 -25q-91 0 -168 36.5t-125.5 95t-75 127.5t-26.5 137zM102 375q0 -27 11 -84l534 323q-23 32 -79.5 59 t-121.5 27q-141 0 -242.5 -97.5t-101.5 -227.5zM184 920l166 243h56l167 -243l-49 -27l-145 199l-146 -199z" />
<glyph unicode="&#xeb;" horiz-adv-x="757" d="M37 367q0 70 27 140t76 128t126.5 94.5t169.5 36.5q105 0 188 -47t124 -117l-613 -371q46 -87 124.5 -140.5t172.5 -53.5q150 0 246 94v-82q-28 -28 -98.5 -53t-147.5 -25q-91 0 -168 36.5t-125.5 95t-75 127.5t-26.5 137zM102 375q0 -27 11 -84l534 323q-23 32 -79.5 59 t-121.5 27q-141 0 -242.5 -97.5t-101.5 -227.5zM156 1028l73 74l74 -74l-74 -74zM455 1028l73 74l74 -74l-74 -74z" />
<glyph unicode="&#xec;" horiz-adv-x="305" d="M-45 1135l72 28l170 -245l-56 -25zM117 -12v737l71 25v-738z" />
<glyph unicode="&#xed;" horiz-adv-x="305" d="M111 918l170 245l71 -28l-186 -242zM117 -12v737l71 25v-738z" />
<glyph unicode="&#xee;" horiz-adv-x="305" d="M-41 920l166 243h55l168 -243l-49 -27l-145 199l-146 -199zM117 -12v737l71 25v-738z" />
<glyph unicode="&#xef;" horiz-adv-x="305" d="M-70 1028l74 74l74 -74l-74 -74zM117 -12v737l71 25v-738zM229 1028l74 74l74 -74l-74 -74z" />
<glyph unicode="&#xf0;" d="M57 369q0 164 117 280.5t281 116.5q83 0 168 -38.5t131 -96.5l4 4q-81 281 -305 545l-232 -131l-33 49l224 127q-117 129 -256 237l65 25q137 -100 252 -227l227 129l33 -50l-221 -125q157 -177 248.5 -382.5t91.5 -413.5q0 -114 -34 -202.5t-91.5 -140.5t-126.5 -78 t-145 -26q-164 0 -281 117t-117 281zM123 369q0 -137 97.5 -234.5t234.5 -97.5q136 0 233.5 97.5t97.5 234.5t-97 234t-234 97t-234.5 -97.5t-97.5 -233.5z" />
<glyph unicode="&#xf1;" horiz-adv-x="796" d="M109 -12v737l71 25v-115h4q38 59 100.5 95t143.5 36q111 0 185.5 -62.5t74.5 -175.5v-516l-72 -24v522q0 91 -55.5 140.5t-132.5 49.5q-100 0 -174 -71t-74 -178v-439zM162 991q9 31 24 53t29 33t33 17t30 7t27 1q29 0 101 -29q7 -3 20.5 -9.5t21 -10t18 -7.5t19 -6 t15.5 -2q6 0 16 3.5t28 18.5t31 40l62 -31q-28 -50 -61 -76t-84 -26q-31 0 -101 32q-7 3 -26 10.5t-28 10.5t-23 6.5t-25 3.5q-24 0 -36 -11t-28 -40z" />
<glyph unicode="&#xf2;" d="M57 369q0 166 116.5 281.5t281.5 115.5t281 -115t116 -282t-116 -282.5t-281 -115.5t-281.5 115.5t-116.5 282.5zM123 369q0 -139 97.5 -235.5t234.5 -96.5t234 96.5t97 235.5t-97 235t-234 96t-234.5 -96t-97.5 -235zM256 1135l72 28l170 -245l-56 -25z" />
<glyph unicode="&#xf3;" d="M57 369q0 166 116.5 281.5t281.5 115.5t281 -115t116 -282t-116 -282.5t-281 -115.5t-281.5 115.5t-116.5 282.5zM123 369q0 -139 97.5 -235.5t234.5 -96.5t234 96.5t97 235.5t-97 235t-234 96t-234.5 -96t-97.5 -235zM412 918l170 245l71 -28l-186 -242z" />
<glyph unicode="&#xf4;" d="M57 369q0 166 116.5 281.5t281.5 115.5t281 -115t116 -282t-116 -282.5t-281 -115.5t-281.5 115.5t-116.5 282.5zM123 369q0 -139 97.5 -235.5t234.5 -96.5t234 96.5t97 235.5t-97 235t-234 96t-234.5 -96t-97.5 -235zM260 920l166 243h55l168 -243l-49 -27l-145 199 l-146 -199z" />
<glyph unicode="&#xf5;" d="M57 369q0 166 116.5 281.5t281.5 115.5t281 -115t116 -282t-116 -282.5t-281 -115.5t-281.5 115.5t-116.5 282.5zM123 369q0 -139 97.5 -235.5t234.5 -96.5t234 96.5t97 235.5t-97 235t-234 96t-234.5 -96t-97.5 -235zM217 991q9 31 24 53t29 33t33 17t30 7t27 1 q28 0 101 -29q7 -3 20.5 -9.5t21 -10t18 -7.5t19 -6t15.5 -2q6 0 16 3.5t28.5 18.5t31.5 40l61 -31q-28 -50 -61 -76t-84 -26q-31 0 -101 32q-7 3 -26 10.5t-28 10.5t-23 6.5t-25 3.5q-24 0 -35.5 -11t-27.5 -40z" />
<glyph unicode="&#xf6;" d="M57 369q0 166 116.5 281.5t281.5 115.5t281 -115t116 -282t-116 -282.5t-281 -115.5t-281.5 115.5t-116.5 282.5zM123 369q0 -139 97.5 -235.5t234.5 -96.5t234 96.5t97 235.5t-97 235t-234 96t-234.5 -96t-97.5 -235zM231 1028l74 74l74 -74l-74 -74zM530 1028l74 74 l74 -74l-74 -74z" />
<glyph unicode="&#xf7;" horiz-adv-x="1228" d="M96 485v66h1037v-66h-1037zM512 102q0 43 29.5 73t72.5 30t73 -30t30 -73t-30 -72.5t-73 -29.5t-72.5 29.5t-29.5 72.5zM512 934q0 43 29.5 72.5t72.5 29.5t73 -29.5t30 -72.5t-30 -73t-73 -30t-72.5 30t-29.5 73z" />
<glyph unicode="&#xf8;" d="M57 -27l111 121q-111 111 -111 275q0 166 116.5 281.5t281.5 115.5q135 0 243 -84l113 123l41 -41l-109 -121q109 -112 109 -274q0 -167 -116 -282.5t-281 -115.5q-137 0 -244 86l-113 -125zM123 369q0 -132 88 -226l444 490q-87 67 -200 67q-137 0 -234.5 -96 t-97.5 -235zM254 104q87 -67 201 -67q137 0 234 96.5t97 235.5q0 131 -88 225z" />
<glyph unicode="&#xf9;" horiz-adv-x="796" d="M109 209v516l71 25v-517q0 -96 56 -146t143 -50q93 0 165 71.5t72 178.5v438l72 25v-738l-72 -24v114h-4q-27 -37 -51.5 -61.5t-73.5 -47t-108 -22.5q-118 0 -194 62t-76 176zM201 1135l71 28l170 -245l-55 -25z" />
<glyph unicode="&#xfa;" horiz-adv-x="796" d="M109 209v516l71 25v-517q0 -96 56 -146t143 -50q93 0 165 71.5t72 178.5v438l72 25v-738l-72 -24v114h-4q-27 -37 -51.5 -61.5t-73.5 -47t-108 -22.5q-118 0 -194 62t-76 176zM356 918l170 245l72 -28l-186 -242z" />
<glyph unicode="&#xfb;" horiz-adv-x="796" d="M109 209v516l71 25v-517q0 -96 56 -146t143 -50q93 0 165 71.5t72 178.5v438l72 25v-738l-72 -24v114h-4q-27 -37 -51.5 -61.5t-73.5 -47t-108 -22.5q-118 0 -194 62t-76 176zM205 920l166 243h55l168 -243l-49 -27l-146 199l-145 -199z" />
<glyph unicode="&#xfc;" horiz-adv-x="796" d="M109 209v516l71 25v-517q0 -96 56 -146t143 -50q93 0 165 71.5t72 178.5v438l72 25v-738l-72 -24v114h-4q-27 -37 -51.5 -61.5t-73.5 -47t-108 -22.5q-118 0 -194 62t-76 176zM176 1028l74 74l74 -74l-74 -74zM475 1028l74 74l74 -74l-74 -74z" />
<glyph unicode="&#xfd;" horiz-adv-x="757" d="M4 713l66 37l321 -586l297 586l66 -25l-533 -1036l-65 24l192 373zM336 918l170 245l72 -28l-187 -242z" />
<glyph unicode="&#xfe;" horiz-adv-x="983" d="M131 -311v1773l72 25v-905h4q51 88 135.5 136t185.5 48q165 0 281.5 -115.5t116.5 -281.5q0 -167 -116.5 -282.5t-281.5 -115.5q-102 0 -187.5 48.5t-133.5 130.5h-4v-437zM197 369q0 -137 97.5 -234.5t233.5 -97.5q137 0 234.5 96.5t97.5 235.5t-97.5 235t-234.5 96 q-136 0 -233.5 -97t-97.5 -234z" />
<glyph unicode="&#xff;" horiz-adv-x="757" d="M4 713l66 37l321 -586l297 586l66 -25l-533 -1036l-65 24l192 373zM156 1028l73 74l74 -74l-74 -74zM455 1028l73 74l74 -74l-74 -74z" />
<glyph unicode="&#x152;" horiz-adv-x="2048" d="M78 737q0 124 30.5 239.5t91 212t144 169t196 113t240.5 40.5q225 0 393 -133.5t246 -351.5h4v449h537l20 -72h-485v-637h410v-72h-410v-622h535l-31 -72h-576v449h-4q-78 -218 -246 -352t-393 -134q-128 0 -240.5 40.5t-196 113t-144 169t-91 212t-30.5 239.5zM150 737 q0 -135 45.5 -261.5t126 -224.5t200 -157t258.5 -59q111 0 211.5 38t176 105.5t131 156t84 191.5t28.5 211t-28.5 211.5t-84 192t-131 155.5t-176 105.5t-211.5 38.5q-139 0 -258.5 -59t-200 -157.5t-126 -225t-45.5 -261.5z" />
<glyph unicode="&#x153;" horiz-adv-x="1515" d="M57 369q0 164 117 280.5t281 116.5q124 0 225 -71t143 -183q43 110 139.5 182t231.5 72q105 0 187.5 -47t123.5 -117l-612 -371q46 -87 124.5 -140.5t172.5 -53.5q150 0 246 94v-82q-28 -28 -98.5 -53t-147.5 -25q-133 0 -229.5 72t-137.5 180q-42 -111 -143 -181.5 t-225 -70.5q-164 0 -281 117t-117 281zM123 369q0 -137 97.5 -234.5t234.5 -97.5q136 0 233.5 97.5t97.5 234.5t-97 234t-234 97t-234.5 -97.5t-97.5 -233.5zM858 375q0 -37 12 -84l535 323q-23 32 -79.5 59t-121.5 27q-141 0 -243.5 -97.5t-102.5 -227.5z" />
<glyph unicode="&#x178;" horiz-adv-x="1138" d="M25 1462l71 25l482 -928l471 928l65 -25l-754 -1474l-71 24l243 471zM346 1698l74 74l74 -74l-74 -74zM645 1698l74 74l74 -74l-74 -74z" />
<glyph unicode="&#x2c6;" horiz-adv-x="303" d="M-43 920l166 243h55l168 -243l-49 -27l-145 199l-146 -199z" />
<glyph unicode="&#x2dc;" horiz-adv-x="303" d="M-86 991q9 31 24 53t29 33t33 17t30 7t27 1q29 0 101 -29q7 -3 20.5 -9.5t21 -10t18 -7.5t19 -6t15.5 -2q6 0 16 3.5t28.5 18.5t31.5 40l61 -31q-28 -50 -61 -76t-84 -26q-31 0 -101 32q-7 3 -26 10.5t-28 10.5t-23 6.5t-25 3.5q-24 0 -36 -11t-28 -40z" />
<glyph unicode="&#x2000;" horiz-adv-x="916" />
<glyph unicode="&#x2001;" horiz-adv-x="1833" />
<glyph unicode="&#x2002;" horiz-adv-x="916" />
<glyph unicode="&#x2003;" horiz-adv-x="1833" />
<glyph unicode="&#x2004;" horiz-adv-x="611" />
<glyph unicode="&#x2005;" horiz-adv-x="458" />
<glyph unicode="&#x2006;" horiz-adv-x="305" />
<glyph unicode="&#x2007;" horiz-adv-x="305" />
<glyph unicode="&#x2008;" horiz-adv-x="229" />
<glyph unicode="&#x2009;" horiz-adv-x="366" />
<glyph unicode="&#x200a;" horiz-adv-x="101" />
<glyph unicode="&#x2010;" horiz-adv-x="530" d="M96 356v66h338v-66h-338z" />
<glyph unicode="&#x2011;" horiz-adv-x="530" d="M96 356v66h338v-66h-338z" />
<glyph unicode="&#x2012;" horiz-adv-x="530" d="M96 356v66h338v-66h-338z" />
<glyph unicode="&#x2013;" horiz-adv-x="1024" d="M0 356v66h1024v-66h-1024z" />
<glyph unicode="&#x2014;" horiz-adv-x="2048" d="M0 356v66h2048v-66h-2048z" />
<glyph unicode="&#x2018;" horiz-adv-x="303" d="M16 950l205 525h66l-189 -508z" />
<glyph unicode="&#x2019;" horiz-adv-x="303" d="M16 967l189 508l82 16l-205 -524h-66z" />
<glyph unicode="&#x201a;" horiz-adv-x="303" d="M16 -287l189 508l82 17l-205 -525h-66z" />
<glyph unicode="&#x201c;" horiz-adv-x="606" d="M37 950l205 525h65l-188 -508zM299 950l205 525h65l-188 -508z" />
<glyph unicode="&#x201d;" horiz-adv-x="606" d="M37 967l188 508l82 16l-205 -524h-65zM299 967l188 508l82 16l-204 -524h-66z" />
<glyph unicode="&#x201e;" horiz-adv-x="606" d="M37 -287l188 508l82 17l-205 -525h-65zM299 -287l188 508l82 17l-204 -525h-66z" />
<glyph unicode="&#x2022;" horiz-adv-x="1024" d="M143 737q0 152 108.5 260.5t260.5 108.5t260.5 -108.5t108.5 -260.5t-108.5 -260t-260.5 -108t-260.5 108t-108.5 260z" />
<glyph unicode="&#x2026;" horiz-adv-x="2048" d="M268 61l74 74l74 -74l-74 -73zM950 61l74 74l74 -74l-74 -73zM1632 61l74 74l74 -74l-74 -73z" />
<glyph unicode="&#x202f;" horiz-adv-x="366" />
<glyph unicode="&#x2039;" horiz-adv-x="417" d="M63 369l250 247l41 -41l-209 -206l209 -207l-41 -41z" />
<glyph unicode="&#x203a;" horiz-adv-x="417" d="M63 162l209 207l-209 206l41 41l250 -247l-250 -248z" />
<glyph unicode="&#x205f;" horiz-adv-x="458" />
<glyph unicode="&#x2122;" horiz-adv-x="2048" d="M102 1409v66h656v-66h-295v-778h-66v778h-295zM922 631v844h110l320 -734l319 734h111v-844h-66v778h-4l-340 -778h-41l-340 778h-4v-778h-65z" />
<glyph unicode="&#xe000;" horiz-adv-x="747" d="M0 0v748h748v-748h-748z" />
<glyph unicode="&#xfb01;" horiz-adv-x="757" d="M156 -12v1204q0 54 13.5 99t33 74t49.5 52t54.5 34.5t56.5 20t47.5 11t35.5 4.5v-72q-108 -6 -163.5 -70t-55.5 -151v-457h224v-65h-224v-660zM532 1065l72 74l74 -74l-74 -74zM569 -12v737l72 25v-738z" />
<glyph unicode="&#xfb02;" horiz-adv-x="757" d="M156 -12v1204q0 54 13.5 99t33 74t49.5 52t54.5 34.5t56.5 20t47.5 11t35.5 4.5v-72q-108 -6 -163.5 -70t-55.5 -151v-457h224v-65h-224v-660zM569 -12v1474l72 25v-1475z" />
</font>
</defs>
</svg>
